<?xml version="1.0" encoding="UTF-8" standalone="no"?>
<!DOCTYPE svg PUBLIC "-//W3C//DTD SVG 1.1//EN" "http://www.w3.org/Graphics/SVG/1.1/DTD/svg11.dtd">
<svg width="100%" height="100%" viewBox="0 0 4167 4167" version="1.1" xmlns="http://www.w3.org/2000/svg" xmlns:xlink="http://www.w3.org/1999/xlink" xml:space="preserve" xmlns:serif="http://www.serif.com/" style="fill-rule:evenodd;clip-rule:evenodd;stroke-linejoin:round;stroke-miterlimit:2;">
    <g transform="matrix(1,0,0,1,-13266.737758,0)">
        <g id="otticamart1" transform="matrix(1,0,0,1,8891.737758,0)">
            <rect x="4375" y="0" width="4166.667" height="4166.667" style="fill:none;"/>
            <g transform="matrix(1.077639,0,0,1.077639,-501.417451,-161.747565)">
                <g>
                    <g transform="matrix(3.610289,0,0,3.610289,4673.873076,1223.528569)">
                        <path d="M754.171,218.878C766.852,230.708 766.092,243.97 763.791,296.536C763.626,300.297 760.233,304.362 754.518,304.182C746.729,303.936 734.408,305.029 734.687,296.503C735.87,260.228 739.982,241.424 729.469,239.875C712.841,237.426 723.872,294.011 717.243,300.214C716.197,301.193 713.161,304.034 699.492,302.549C692.298,301.767 692.107,295.388 692.081,294.514C691.235,266.246 699.323,239.366 685.503,239.178C680.319,239.107 676.448,245.682 676.533,253.5C676.573,257.086 677.008,296.797 676.11,298.328C673.562,302.674 672.09,303.591 654.507,303.309C644.626,303.151 647.165,288.874 647.17,283.498C647.195,253.358 648.608,221.042 649.897,218.747C653.571,212.204 672.67,212.209 674.344,219.559C676.111,227.314 680.227,211.548 695.496,211.717C711.875,211.898 712.134,226.32 716.381,222.364C718.194,220.675 726.022,210.459 741.529,212.355C747.463,213.081 753.31,218.134 754.171,218.878Z" style="fill:rgb(5,5,5);"/>
                    </g>
                    <g transform="matrix(3.610289,0,0,3.610289,4673.873076,1223.528569)">
                        <path d="M360.861,248.785C361.553,278.756 358.68,298.951 373.318,293.082C376.403,291.845 382.211,285.174 386.257,296.571C388.143,301.883 388.73,311.829 386.385,315.423C378.244,327.9 331.405,341.11 327.899,291.476C326.64,273.652 327.961,250.083 328.163,246.49C328.562,239.362 316.189,247.437 314.497,236.524C314.374,235.732 314.088,236.104 314.451,226.795C315.013,212.383 329.733,220.78 330.601,212.517C332.857,191.057 331.88,186.488 348.411,183.788C350.387,183.465 364.111,181.501 364.83,191.465C365.761,204.363 359.824,213.342 367.446,214.898C374.976,216.434 382.146,211.068 381.866,225.517C381.652,236.54 381.595,240.073 367.498,240.416C360.633,240.582 360.742,243.645 360.861,248.785Z" style="fill:rgb(4,4,4);"/>
                    </g>
                    <g transform="matrix(3.610289,0,0,3.610289,4673.873076,1223.528569)">
                        <path d="M973.126,230.448C972.146,248.384 961.912,238.065 954.459,242.446C951.48,244.198 951.222,254.965 951.004,261.548C950.879,265.294 950.419,284.64 951.475,287.509C956.95,302.388 968.567,283.862 972.695,291.359C973.329,292.511 974.964,295.479 975.869,307.486C977.123,324.135 940.184,332.68 925.571,316.72C922.443,313.303 918.074,309.465 917.23,291.202C917.077,287.905 918.408,255.169 920.749,244.557C922.466,236.774 910.008,242.606 909.92,232.474C909.753,213.218 917.106,217.067 922.141,214.008C926.363,211.442 922.675,188.702 931.458,185.405C934.964,184.088 952.948,179.568 956.214,187.64C959.413,195.547 952.651,213.31 957.499,214.504C963.904,216.082 968.03,214.317 971.237,216.827C975.042,219.804 973.671,224.358 973.126,230.448Z" style="fill:rgb(5,5,4);"/>
                    </g>
                    <g transform="matrix(3.610289,0,0,3.610289,4673.873076,1223.528569)">
                        <path d="M785.501,243.933C778.149,242.977 769.537,228.614 778.77,221.86C791.777,212.347 800.165,209.511 817.556,211.964C841.748,215.376 842.416,245.914 842.495,249.5C842.642,256.117 841.839,300.2 840.146,303.313C839.419,304.649 836.802,309.46 821.546,307.249C813.79,306.125 817.146,295.699 812.73,299.769C811.081,301.288 799.568,311.899 785.513,306.463C766.765,299.213 769.37,281.851 769.761,276.518C770.573,265.441 782.176,254.336 792.426,252.203C810.63,248.416 816.032,253.274 815.553,244.495C815.198,238.006 806.846,229.679 791.311,241.239C788.661,243.211 788.817,243.587 785.501,243.933Z" style="fill:rgb(6,6,6);"/>
                    </g>
                    <g transform="matrix(3.610289,0,0,3.610289,4673.873076,1223.528569)">
                        <path d="M566.819,271.567C573.181,254.422 582.408,250.241 608.468,249.163C615.362,248.878 610.443,239.536 610.443,239.536C601.291,223.928 584.068,249.51 576.281,240.712C555.899,217.681 598.554,210.9 601.51,210.81C641.661,209.589 638.867,245.2 638.589,266.5C638.194,296.773 640.056,303.432 631.467,304.238C612.742,305.994 613.875,301.177 613.172,298.589C611.961,294.137 606.996,300.731 603.232,303.066C595.819,307.664 582.925,307.159 576.543,302.441C563.501,292.802 564.691,281.209 566.819,271.567Z" style="fill:rgb(6,6,6);"/>
                    </g>
                    <g transform="matrix(3.610289,0,0,3.610289,4673.873076,1223.528569)">
                        <path d="M396.799,275.495C396.799,268.594 397.73,250.93 397.957,244.034C398.138,238.519 394.745,239.335 392.556,239.169C383.716,238.498 383.887,216.76 393.48,215.394C400.73,214.362 400.252,212.25 401.205,199.466C401.947,189.502 401.565,186.154 417.51,183.562C435.242,180.68 431.863,193.25 430.961,208.535C430.616,214.382 433.297,213.47 440.499,213.584C450.113,213.738 449.142,217.803 448.717,230.514C448.345,241.624 433.213,238.001 430.467,239.452C427.992,240.759 427.083,276.792 429.128,281.652C433.838,292.845 447.499,274.818 450.306,288.556C452.868,301.1 453.528,303.963 445.557,309.587C442.328,311.866 437.301,314.212 434.004,315.015C423.33,317.615 396.799,321.634 396.799,275.495Z" style="fill:rgb(5,5,5);"/>
                    </g>
                    <g transform="matrix(3.610289,0,0,3.610289,4673.873076,1223.528569)">
                        <path d="M511.771,221.895C514.68,219.272 525.229,208.856 541.488,212.559C571.736,219.448 560.118,233.085 558.662,235.59C551.183,248.459 547.677,243.098 544.412,241.692C524.457,233.096 517.702,266.982 528.908,276.026C537.74,283.154 547.038,275.058 548.412,274.31C552.616,272.024 561.836,274.939 562.149,290.489C562.278,296.941 552.373,303.93 543.504,306.514C541.074,307.221 526.474,311.475 512.21,301.931C487.992,285.725 488.343,243.015 511.771,221.895Z" style="fill:rgb(6,6,6);"/>
                    </g>
                    <g transform="matrix(3.610289,0,0,3.610289,4673.873076,1223.528569)">
                        <path d="M861.499,310.389C857.872,310.403 853.774,311.105 850.608,306.426C846.847,300.868 851.463,265.266 851.901,238.517C852.157,222.857 852.81,216.036 861.513,215.724C866.6,215.542 876.671,213.853 877.623,221.475C878.512,228.592 880.84,220.459 889.651,215.798C895.746,212.573 909.149,211.014 906.485,229.498C906.196,231.501 906.082,243.454 898.477,246.445C897.103,246.986 884.512,244.119 879.459,258.489C878.651,260.788 879.134,281.98 877.967,293.511C876.596,307.051 876.407,307.346 873.464,309.439C872.566,310.078 871.605,310.349 861.499,310.389Z" style="fill:rgb(5,5,5);"/>
                    </g>
                    <g transform="matrix(3.610289,0,0,3.610289,4673.873076,1223.528569)">
                        <path d="M488.099,228.506C488.102,302.185 488.001,302.458 486.193,305.286C482.51,311.047 463.843,312.042 459.694,306.373C457.417,303.26 457.701,296.755 458.137,252.474C458.391,226.615 458.565,220.813 474.499,220.484C483.008,220.309 487.111,220.828 488.099,228.506Z" style="fill:rgb(4,4,4);"/>
                    </g>
                    <g transform="matrix(3.610289,0,0,3.610289,4673.873076,1223.528569)">
                        <path d="M600.479,283.627C598.939,283.816 591.733,284.964 591.852,276.509C591.977,267.568 612.017,264.081 612.492,269.013C613.668,281.232 604.158,283.175 600.479,283.627Z" style="fill:rgb(244,244,244);"/>
                    </g>
                    <g transform="matrix(3.610289,0,0,3.610289,4673.873076,1223.528569)">
                        <path d="M805.41,269.032C811.038,268.172 811.001,268.166 811.488,268.103C816.381,267.469 815.414,279.979 808.303,283.114C794.393,289.249 790.51,272.353 805.41,269.032Z" style="fill:rgb(243,243,243);"/>
                    </g>
                    <g transform="matrix(3.610289,0,0,3.610289,4669.865288,1222.938596)">
                        <path d="M458.17,197.532C458.094,172.158 485.123,176.734 489.634,187.435C500.077,212.212 461.106,220.683 458.17,197.532Z" style="fill:rgb(7,7,7);"/>
                    </g>
                </g>
                <g transform="matrix(1,0,0,1,64.007787,-34.410027)">
                    <g transform="matrix(3.610289,0,0,3.610289,4609.865288,1257.938596)">
                        <path d="M407.603,143.145C401.013,141.243 400.577,141.644 400.379,140.554C399.922,138.038 404.631,137.484 405.037,137.293C406.105,136.79 408.523,136.217 409.594,135.72C421.435,130.223 417.622,118.856 419.823,117.797C424.288,115.649 423.556,123.402 424.557,125.48C430.476,137.775 435.221,136.232 441.369,137.8C444.017,138.475 443.851,140.83 441.435,141.311C422.237,145.13 425.78,157.183 423.548,159.545C418.786,164.585 420.263,146.8 407.603,143.145Z" style="fill:rgb(247,122,50);"/>
                    </g>
                    <g transform="matrix(3.610289,0,0,3.610289,4609.865288,1257.938596)">
                        <path d="M377.199,135.452C372.152,150.164 372.165,128.075 366.184,125.951C354.933,121.956 350.494,120.172 358.319,118.9C363.631,118.037 369.304,117.26 370.455,111.398C373.299,96.903 375.247,98.397 376.667,106.39C377.79,112.71 377.939,115.608 383.641,116.698C392.111,118.317 397.085,119.761 387.98,122.063C379.435,124.224 379.019,130.144 377.199,135.452Z" style="fill:rgb(247,122,50);"/>
                    </g>
                    <g transform="matrix(3.610289,0,0,3.610289,4609.865288,1257.938596)">
                        <path d="M315.94,355.754C314.233,362.729 312.663,362.042 311.156,355.077C310.296,351.103 306.27,350.64 301.793,349.916C296.208,349.012 295.955,346.395 304.698,345.374C307.09,345.095 309.882,344.226 311.086,341.332C312.432,338.096 314.269,330.308 315.592,334.619C316.663,338.112 316.684,344.645 321.108,345.049C326.079,345.503 336.917,347.508 324.228,349.99C319.536,350.908 316.723,352.553 315.94,355.754Z" style="fill:rgb(247,122,50);"/>
                    </g>
                    <g transform="matrix(1,0,0,1,-8891.737758,0)">
                        <circle cx="14697" cy="1777" r="20" style="fill:rgb(247,122,50);"/>
                    </g>
                </g>
                <g transform="matrix(2.218238,0,0,2.000892,4222.627513,1085.40181)">
                    <g>
                        <g>
                            <g transform="matrix(2.923625,0,0,2.923625,-910.118026,-1167.903024)">
                                <path d="M409.31,585.942C402.857,621.525 418.64,661.544 464.632,666.684C508.991,671.641 535.705,632.834 535.543,600.437C535.345,561.055 516.31,536.483 481.264,532.789C443.848,528.845 414.717,556.129 409.31,585.942Z"/>
                            </g>
                            <g transform="matrix(2.507909,0,0,2.507909,-714.009735,-918.572753)">
                                <path d="M409.31,585.942C402.857,621.525 418.64,661.544 464.632,666.684C508.991,671.641 535.705,632.834 535.543,600.437C535.363,564.665 519.641,541.112 490.495,534.326C487.554,533.641 488.463,526.349 485.251,526.01C481.934,525.66 470.707,525.955 467.531,526.076C465.183,526.166 466.863,532.759 464.602,533.087C435.428,537.32 413.884,560.727 409.31,585.942Z" style="fill:rgb(247,122,50);"/>
                            </g>
                        </g>
                        <g>
                            <g transform="matrix(1.37626,0,0,1.37626,-178.069643,-224.633017)">
                                <path d="M419.914,582.18C413.46,617.763 420.008,660.86 466,666C510.36,670.957 527.93,623.517 528.36,598.727C528.824,571.937 519.047,531.694 484,528C446.584,524.056 425.321,552.367 419.914,582.18Z"/>
                            </g>
                            <path d="M425,580C420,612.676 417.828,663.04 466,666C510.552,668.737 523.571,622.791 524,598C524.464,571.21 517.593,529.514 484,528C446.415,526.306 429.583,550.049 425,580Z" style="fill:white;"/>
                        </g>
                    </g>
                    <g>
                        <g>
                            <path d="M320,276C316.649,275.242 308.138,257.846 340,231C371.862,204.154 393.681,215.22 410,234C426.319,252.78 421.888,275.918 402,257C382.112,238.082 359.728,246.914 347,259C334.272,271.086 329.433,278.133 320,276Z"/>
                            <g transform="matrix(-1,0,0,1,967.022249,0)">
                                <path d="M319,276C315.649,275.242 307.249,256.756 340,230C372.116,203.763 396.919,217.259 413,235C437.605,262.144 430.425,297.602 403,262C387.628,242.045 363.123,246.722 348,259C333.282,270.949 328.433,278.133 319,276Z"/>
                            </g>
                        </g>
                        <g>
                            <g>
                                <g>
                                    <g transform="matrix(0.219802,0,0,1.142857,174.764356,-55.857143)">
                                        <path d="M729,384C729,391.727 699.579,398 663.34,398L289.66,398C253.421,398 224,391.727 224,384C224,376.273 253.421,370 289.66,370L663.34,370C699.579,370 729,376.273 729,384Z"/>
                                    </g>
                                    <g transform="matrix(0.219802,0,0,1.142857,574.471534,-55.857143)">
                                        <path d="M729,384C729,391.727 699.579,398 663.34,398L289.66,398C253.421,398 224,391.727 224,384C224,376.273 253.421,370 289.66,370L663.34,370C699.579,370 729,376.273 729,384Z"/>
                                    </g>
                                </g>
                                <g transform="matrix(0.219802,0,0,1.142857,375.227201,-46.857143)">
                                    <path d="M729,384C729,391.727 699.579,398 663.34,398L289.66,398C253.421,398 224,391.727 224,384C224,376.273 253.421,370 289.66,370L663.34,370C699.579,370 729,376.273 729,384Z"/>
                                </g>
                                <g>
                                    <g transform="matrix(1.399707,0,0,1.399707,-482.824216,-156.866561)">
                                        <path d="M600,335C640.302,333.076 676,362.606 675,410C674.127,451.384 641.384,484.108 600,485C553.606,486 525.855,451.385 525,410C524,361.606 557.561,337.026 600,335Z"/>
                                    </g>
                                    <g transform="matrix(1,0,0,1,-243,7)">
                                        <path d="M600,335C640.302,333.076 676,362.606 675,410C674.127,451.384 641.384,484.108 600,485C553.606,486 525.855,451.385 525,410C524,361.606 557.561,337.026 600,335Z" style="fill:white;"/>
                                    </g>
                                </g>
                                <g>
                                    <g transform="matrix(1.373239,0,0,1.373239,-220.955921,-146.027815)">
                                        <path d="M600,335C633.302,335.076 674.976,367.606 674,415C673.127,457.384 641.394,485 600,485C553.606,485 524.855,454.385 524,413C523,364.606 557.512,334.903 600,335Z"/>
                                    </g>
                                    <g transform="matrix(1,0,0,1,2.613237,7)">
                                        <path d="M600,335C633.302,335.076 674.976,367.606 674,415C673.127,457.384 641.394,485 600,485C553.606,485 524.855,454.385 524,413C523,364.606 557.512,334.903 600,335Z" style="fill:white;"/>
                                    </g>
                                </g>
                            </g>
                            <g>
                                <path d="M350,419C347.465,439.133 358.33,444.917 368,430C374.72,419.634 382.618,422.649 386,428C389.382,433.351 408.628,446.527 403,417C397.003,385.541 353.975,387.432 350,419Z"/>
                                <g transform="matrix(-1,0,0,1,960.215674,0)">
                                    <path d="M350,419C347.807,439.173 362.33,443.917 369,431C374.668,420.023 381.989,423.102 386,428C390.382,433.351 409.729,446.296 403,417C396.003,386.541 353.975,382.432 350,419Z"/>
                                </g>
                            </g>
                        </g>
                    </g>
                </g>
            </g>
        </g>
    </g>
</svg>
